<svg xmlns="http://www.w3.org/2000/svg" width="1663.697" height="2326.594" viewBox="0 0 128.275 179.386"><g fill-rule="evenodd" clip-rule="evenodd"><path d="m64.717 1.886 1.85.036c.109.689 0 1.378.037 2.104l-1.814.037c-.218.653-.073 1.414-.073 2.104.907.29 1.813.652 2.502 1.451 1.197-.182 2.285.435 2.867 1.523.543-.798 1.449-1.343 2.465-1.343.908.073 1.779.472 2.287 1.306.182.399.326.798.436 1.27a2.654 2.654 0 0 1 2.539-.544c.689.254 1.523.835 1.777 1.633.145.399.072.798.18 1.233.871-.326 1.996-.363 2.867.254.871.726 1.27 1.959.943 3.12l.072.073c1.053-.182 2.031.327 2.684 1.197l.074.036c.543-1.088 1.705-1.668 2.938-1.487.725.181 1.596.544 1.959 1.342l.326.799c.871-.617 2.322-.617 3.266.072.762.653 1.16 1.56 1.051 2.612.836-.363 1.852-.508 2.758.037a2.93 2.93 0 0 1 1.342 2.394l-.109 1.233c.799-.29 1.742-.072 2.469.508.615.653 1.016 1.523.906 2.503-.072.435-.326.798-.436 1.196.871.037 1.668.581 2.176 1.415.363.689.4 1.741-.035 2.503l-.689.907c.217.146.58.217.906.398.762.544 1.234 1.379 1.342 2.322.037.544-.289.979-.326 1.487.727.436 1.27 1.306 1.342 2.177-.035.544-.254 1.016-.471 1.487.617 1.125.689 2.902-.145 3.954a4.16 4.16 0 0 1-4.426 1.088c-1.379 1.379-3.301 2.032-5.115 1.741-.182.472-.363 1.016-.834 1.307-.436.181-.906.253-1.307.145-2.721-1.197-5.406-2.395-8.162-3.192-7.871-2.902-16.506-4.461-25.031-4.244-.363.036-.798.036-1.197.108-9.686.581-18.574 3.156-27.134 6.784-1.162.254-2.504 1.597-3.591.327a2.28 2.28 0 0 1-.363-1.052c-1.742.145-3.301-.218-4.607-1.342-1.451.291-3.192-.073-4.171-1.378-.726-.943-.617-2.467-.218-3.519-.762-.689-1.161-1.669-.798-2.648a2.69 2.69 0 0 1 1.233-1.451c-.29-.653-.472-1.415-.254-2.141.29-1.015 1.16-1.813 2.213-1.959l.036-.108c-.689-.798-1.415-1.706-1.016-2.83.253-1.052 1.269-1.886 2.321-1.995v-.182c-.543-.761-.543-1.958-.072-2.72.472-1.016 1.451-1.487 2.539-1.415l.653.072c-.29-.798-.399-1.777.073-2.539.543-.943 1.486-1.487 2.539-1.415.363-.035.798.109 1.125.327-.037-.726.073-1.415.435-1.959.617-.979 1.85-1.415 2.975-1.197.326.072.653.218.943.435.291-.544.472-1.16 1.016-1.56.726-.653 1.814-.834 2.793-.471.544.218 1.088.689 1.415 1.27.689-.689 1.487-1.161 2.539-.943.036-.363-.145-.762-.109-1.125.037-.979.653-1.886 1.597-2.321.761-.399 1.813-.29 2.611.072-.217-.979.037-1.959.762-2.612a2.82 2.82 0 0 1 2.539-.762c.399.109.762.363 1.124.617.218-.253.254-.688.509-.979.435-.798 1.233-1.27 2.104-1.378.834-.109 1.56.435 2.141 1.016.362-.798 1.233-1.487 2.14-1.596.472-.109.799.072 1.271 0 .544-.689 1.378-.979 2.176-1.27l.108-.182V4.063l-2.031-.037c-.036-.617-.108-1.378 0-2.068l1.922-.036c.217-.617-.073-1.378.181-1.922l2.068.036z"/><path fill="#efc460" d="M64.246 2.321c.508.073 1.234.037 1.851.037.072.399.072.907 0 1.233h-1.779l-.109.218.037 2.721c.652.29 1.451.363 2.068.871l.762.725a2.27 2.27 0 0 1 2.104.545c.326.362.545.798.652 1.306.109.037.328.109.51-.036.18-.871 1.016-1.56 1.922-1.669.689-.072 1.342.218 1.887.653.58.544.652 1.378.615 2.177.545.508.545-.508 1.088-.581.51-.326 1.199-.362 1.852-.254.471.218 1.088.617 1.342 1.161.363.689.219 1.632 0 2.358.291 0 .473-.399.834-.544.654-.508 1.705-.399 2.432.073.689.471.979 1.269.943 2.14-.037.544-.398.907-.545 1.379l.109.073c.58-.327 1.197-.472 1.922-.254.871.326 1.416 1.197 1.705 2.104.072.073.109-.072.182-.145.037-.907.508-1.85 1.451-2.14.762-.327 1.705-.145 2.395.436.543.508.689 1.269.725 2.067l.072.073c.545-.726 1.344-1.197 2.359-.979.689.145 1.523.689 1.74 1.487.182.544.109 1.27-.145 1.778-.037.181.145.217.289.326.473-.399 1.016-.798 1.742-.798a2.217 2.217 0 0 1 1.922.979c.545.907.473 2.285-.145 3.12-.037.145.109.326.254.399.617-.544 1.633-.871 2.467-.363.689.435 1.053 1.233 1.088 2.068-.145.726-.398 1.451-.979 1.886-.072.072 0 .108.107.108.799-.181 1.779.072 2.432.798.289.472.545 1.052.436 1.705-.146.798-.943 1.378-1.27 2.104.107.436.689.145 1.051.399.727.181 1.271 1.016 1.451 1.74-.035.653-.107 1.343-.508 1.851v.109c.727.435 1.561 1.088 1.523 2.104-.072.508-.289.979-.543 1.379.471.798.725 1.85.471 2.866-.436 1.125-1.523 1.886-2.646 1.995-.764.037-1.379-.072-1.924-.326-1.379 1.487-3.555 2.358-5.551 1.705-.182.145 0 .435 0 .726-.072.399-.471.653-.762.87l-.58.037c-2.104-.907-4.172-1.742-6.203-2.576-5.188-1.813-10.447-3.41-15.926-4.208-9.214-1.56-19.117-.471-28.077 2.067-4.789 1.342-9.396 2.975-13.857 5.042-.436 0-.835-.326-1.089-.653-.217-.363-.036-.798 0-1.088-1.741.326-3.7 0-5.042-1.342-1.016.363-2.322.181-3.156-.363-.871-.581-1.233-1.451-1.233-2.431.036-.617.218-1.125.472-1.632-.509-.436-.979-.943-1.053-1.597-.108-.907.436-1.632 1.161-2.067.109-.109.363-.073.436-.291-.544-.618-.726-1.451-.472-2.213.291-.726.907-1.415 1.705-1.523.217-.108.581.037.726-.218-.218-.616-.834-1.088-1.089-1.632-.398-.69-.217-1.633.254-2.213.581-.762 1.524-1.016 2.43-.834.073.036.109-.109.073-.146-.689-.508-1.161-1.343-.979-2.25.109-.761.58-1.523 1.342-1.813.871-.363 1.85-.109 2.576.472.871-.435-.363-.653-.363-1.125-.435-.762-.327-1.814.182-2.503.58-.689 1.415-1.052 2.321-.798.363.109.834.363 1.088.725.146-.036.29-.145.399-.253-.399-.617-.399-1.451-.109-2.104.473-.871 1.415-1.306 2.358-1.27.689 0 1.27.472 1.742.98.254-.291.036-.762.217-1.089.254-.798.943-1.523 1.814-1.632a2.325 2.325 0 0 1 2.176.907c.255.291.291.689.545.98.291-.508.726-1.016 1.306-1.234.652-.398 1.523-.181 2.212.146.146-.109 0-.29-.073-.399-.507-.581-.579-1.597-.253-2.286.363-.798 1.197-1.306 2.104-1.306.834.037 1.56.471 2.031 1.198.182.036.363-.182.508-.327-.544-.617-.871-1.378-.617-2.213.145-.834.87-1.487 1.632-1.668.726-.254 1.523.036 2.104.544l.617.761c.29-.253-.037-.834.181-1.197.181-.798.726-1.523 1.56-1.813.617-.253 1.416.037 1.959.544.326.218.435.652.725.943.254-.436.327-1.053.762-1.451.617-.617 1.632-.943 2.576-.581.726-.762 1.669-1.307 2.72-1.487 0-.979.073-1.959 0-2.938l-.181-.073h-1.741l-.11-.108.073-1.088 1.923-.073c.073-.58 0-1.233.073-1.814.326-.109.762-.072 1.197-.036z"/><path d="M60.618 8.851c.58.436.762 1.27.544 1.995-.327.617-.943 1.161-1.597 1.234-.834-.037-1.596-.399-1.886-1.125-.181-.436-.254-.943-.037-1.379.218-.653.835-1.088 1.524-1.161.545-.035.98.109 1.452.436zm8.705.798c.182.653.074 1.415-.361 1.959-.398.326-.871.544-1.414.544-.545 0-.943-.291-1.271-.653a1.739 1.739 0 0 1-.326-1.814c.254-.689.98-1.233 1.742-1.197.652.036 1.414.472 1.63 1.161zm4.899.145c.145.471.182 1.052-.037 1.523-.289.509-.762.907-1.27 1.016-.725.145-1.451-.145-1.85-.689-.436-.435-.436-1.052-.326-1.632.217-.726.943-1.271 1.705-1.306.653 0 1.415.362 1.778 1.088z"/><path fill="#fff" d="M60.437 9.322c.326.291.326.799.253 1.234a1.641 1.641 0 0 1-.726.907c-.399.181-.87.109-1.196-.036a1.295 1.295 0 0 1-.689-.762c-.145-.436-.109-.907.218-1.27.471-.689 1.523-.689 2.14-.073zm8.271.146c.254.291.326.726.254 1.161-.109.399-.436.762-.762.943-.436.072-.834.217-1.162-.037-.471-.181-.688-.617-.688-1.052-.074-.508.035-.943.471-1.234.545-.507 1.379-.325 1.887.219zm4.824.145c.217.29.363.689.326 1.124a1.834 1.834 0 0 1-.725 1.016c-.363.218-.799.146-1.125.073-.398-.182-.689-.509-.799-.871-.145-.544-.035-1.161.508-1.488.474-.435 1.345-.362 1.815.146z"/><path d="M56.229 9.903c.399.543.508 1.378.181 2.031-.399.472-.871.87-1.451.907-.689.037-1.342-.291-1.668-.871-.291-.398-.327-.979-.218-1.451.218-.725.943-1.27 1.705-1.342.544.001 1.052.291 1.451.726z"/><path fill="#fff" d="M55.684 10.012c.363.327.472.798.399 1.305-.073.399-.435.799-.762.98-.363.145-.907.109-1.197-.145-.363-.254-.653-.653-.616-1.125 0-.508.253-.98.761-1.233.4-.217 1.053-.181 1.415.218z"/><path d="M78.72 11.717c.182.472.182 1.088-.035 1.524-.363.69-1.162 1.088-1.887 1.016-.582-.073-1.125-.437-1.379-.943-.326-.581-.291-1.452.182-1.996.436-.616 1.27-.833 2.029-.58.4.181.873.543 1.09.979zm-27.062-.4c.254.399.508.799.435 1.343a2.08 2.08 0 0 1-.798 1.378 1.82 1.82 0 0 1-1.958 0 1.765 1.765 0 0 1-.798-1.777c.036-.544.361-1.016.87-1.306.689-.399 1.704-.326 2.249.362z"/><path fill="#fff" d="M77.993 11.5c.291.362.473.907.328 1.415-.254.544-.799.906-1.344.906-.506-.036-.979-.253-1.125-.688-.252-.399-.252-.943 0-1.306.111-.399.51-.653.945-.726.435 0 .833.072 1.196.399zm-26.807 0c.327.29.399.689.436 1.125-.073.471-.399.87-.762 1.161-.471.146-.979.109-1.378-.217-.29-.291-.508-.617-.472-1.016-.072-.435.218-.762.472-1.052.471-.4 1.233-.51 1.704-.001z"/><path d="M65.407 13.748c.217.399.289.944.145 1.415-.219.689-.98 1.197-1.669 1.27-.689-.036-1.451-.326-1.74-.979-.255-.472-.327-1.161-.037-1.633.254-.543.798-.906 1.379-1.016a1.881 1.881 0 0 1 1.922.943z"/><path fill="#fff" d="M64.898 13.857c.219.326.254.871.146 1.306-.146.29-.436.472-.653.689a1.716 1.716 0 0 1-1.271-.072c-.436-.254-.689-.689-.689-1.125-.036-.508.253-.979.726-1.233.58-.29 1.343-.181 1.741.435z"/><path d="M82.71 14.401c.254.617.146 1.451-.254 1.959-.617.544-1.342.798-2.104.544-.508-.182-.906-.653-1.053-1.089-.217-.653-.109-1.378.4-1.85a1.736 1.736 0 0 1 1.85-.544c.437.219.907.473 1.161.98zm-34.825.436c.145.362.217.907.072 1.342-.182.472-.617.907-1.052 1.125-.689.218-1.487.109-1.924-.363-.543-.508-.797-1.343-.507-2.032.254-.652.834-1.016 1.488-1.125.762-.072 1.561.327 1.923 1.053z"/><path fill="#fff" d="M82.347 14.764c.072.327 0 .725-.109 1.052-.324.436-.762.689-1.232.726-.471 0-.834-.217-1.051-.507a1.194 1.194 0 0 1-.254-1.197c.07-.399.398-.799.834-.906.724-.329 1.486.143 1.812.832z"/><path d="M79.046 18.754c3.229 2.902 4.607 6.893 4.463 11.391l-1.234 1.124c-.871-.072-1.633.109-2.213.726-.725 1.016-1.088 2.286-.871 3.556.219.979 1.162 1.632 2.141 1.777-.035.544-.543 1.052-.906 1.487a3.24 3.24 0 0 1-2.648.435c-.979-.217-1.777-1.197-1.959-2.104-.289-.726.219-1.27.254-1.922a2.617 2.617 0 0 0-1.016-2.177c-.617-.544-1.523-.544-2.213-.29-.834.326-1.596 1.161-1.596 2.067-.145.508.217 1.016-.072 1.487-.545.943-1.561 1.705-2.611 1.632-.943.073-1.742-.435-2.287-1.088-.398-.508-.617-1.089-.543-1.705.943.036 2.066-.072 2.756-1.016.654-.834.4-2.104.436-3.083-.109-.798-.871-1.56-1.559-1.85l-.799-.146c-.072-.762-.652-1.415-1.307-1.777l-.979-.362v-.073c.762-.218 1.524-.907 1.706-1.705.289-.907-.182-1.705-.58-2.321l.035-1.524c.545-.726.834-1.741.436-2.576l-.471-.871.035-1.56c.473-.617.654-1.415.617-2.14 4.895-.543 9.321 1.343 12.985 4.608zM61.453 14.22c0 .653.181 1.233.398 1.814l-.036 2.43c-.508.726-.326 1.814.036 2.576l-.036 2.395c-.399.58-.435 1.56-.036 2.212.254.617.942.943 1.523 1.197-.29.182-.726.218-1.016.363-.834.253-1.306 1.088-1.487 1.813-.979.58-2.141 1.161-2.503 2.286.036.943-.327 2.14.435 2.866.616.907 1.777 1.052 2.793 1.016-.036 1.016-.726 2.032-1.669 2.43-.979.436-2.104.254-2.938-.217-.616-.435-.979-1.052-1.161-1.669.073-.834-.036-1.705-.581-2.321a2.475 2.475 0 0 0-2.395-.689c-.798.218-1.668.943-1.777 1.814-.181.834.073 1.632.581 2.285-.109 1.052-.762 2.141-1.85 2.467-1.197.326-2.359.072-3.156-.799-.327-.362-.617-.761-.654-1.196.834-.218 1.668-1.016 1.85-1.887.037-1.233-.253-2.467-1.016-3.41-.58-.508-1.306-.798-2.068-.689l-1.306-1.415c-.037-5.369 2.975-9.831 7.292-13.205 2.721-2.067 6.203-2.611 9.795-2.575z"/><path fill="#fff" d="M47.196 14.692c.327.29.363.797.327 1.197-.073.363-.399.689-.726.943-.399.181-.871.109-1.233 0a1.362 1.362 0 0 1-.689-1.451c.037-.399.291-.798.652-.979.544-.291 1.233-.145 1.669.29zm28.948 2.431c2.867 1.741 5.441 4.643 6.312 7.872-4.826-2.83-10.883-3.664-16.541-2.648v-.944c.58-.689.762-1.669.508-2.54-.146-.362-.291-.689-.508-.98v-1.559c.436-.508.58-1.125.652-1.777 3.446-.255 6.749.689 9.577 2.576zm-15.127-2.504c.037.544.218 1.051.363 1.596-.109.943.145 2.104-.291 3.011-.108.617.036 1.27.291 1.886l-.037 1.233c-5.188-.871-10.81-.326-15.345 1.996-.435.108-.834.399-1.197.617.834-2.902 3.156-5.225 5.477-7.364 2.903-2.54 6.857-3.156 10.739-2.975z"/><path d="M90.292 17.34c.545.508.545 1.378.326 2.067-.436.581-1.051.979-1.742.979-.725-.037-1.414-.471-1.631-1.088-.219-.471-.254-1.088 0-1.524.326-.58.871-.979 1.523-1.015.544-.072 1.089.146 1.524.581zm-50.46.145c.363.363.581.871.543 1.415-.036.507-.253.907-.58 1.27-.436.363-1.052.472-1.596.399a1.66 1.66 0 0 1-1.234-.871c-.218-.435-.362-1.016-.145-1.451.182-.689.871-1.197 1.56-1.27.509 0 1.053.146 1.452.508zm45.816.544c.219.362.182.943.109 1.378a2.425 2.425 0 0 1-1.051 1.125c-.473.072-1.016.181-1.416-.073-.652-.363-1.053-1.052-.979-1.705-.037-.725.471-1.342 1.125-1.632.835-.326 1.778.072 2.212.907z"/><path fill="#fff" d="M89.892 17.63c.256.326.438.762.328 1.233-.109.327-.328.689-.58.87-.508.291-1.125.255-1.523-.072-.4-.326-.582-.726-.545-1.197 0-.399.254-.762.617-.979.47-.362 1.304-.362 1.703.145z"/><path d="M44.475 18.029c.362.399.507.979.436 1.56-.146.653-.689 1.233-1.306 1.415-.508.108-1.125.036-1.524-.254-.399-.363-.762-.799-.798-1.306a1.807 1.807 0 0 1 1.016-1.814c.725-.362 1.56-.182 2.176.399z"/><path fill="#fff" d="M39.578 17.92c.327.327.363.907.254 1.378-.145.363-.472.581-.834.798-.617.182-1.198 0-1.561-.472-.326-.508-.362-1.27.073-1.705.218-.254.508-.398.834-.435.472-.071.908.073 1.234.436zm45.564.109c.217.253.217.689.217 1.088-.109.363-.4.689-.689.907-.326.108-.689.217-.979.108-.363-.108-.689-.399-.799-.726-.182-.362-.145-.871.035-1.197.219-.436.617-.798 1.162-.726.399.002.762.22 1.053.546z"/><path d="M65.443 18.827c.182.436.254 1.088.037 1.56-.254.436-.654.835-1.088.979-.689.182-1.452.037-1.923-.436-.399-.362-.508-.834-.543-1.306 0-.798.543-1.487 1.306-1.705.832-.289 1.775.11 2.211.908z"/><path fill="#fff" d="M44.185 18.428c.181.29.29.689.253 1.052-.109.398-.363.798-.726 1.016-.435.146-.943.181-1.306-.109a1.263 1.263 0 0 1-.616-1.197c.036-.399.145-.798.543-1.016.51-.4 1.417-.362 1.852.254zm20.678.363c.219.327.363.834.219 1.27-.184.399-.509.798-.908.907-.437.109-.835 0-1.161-.181-.399-.29-.653-.762-.581-1.233-.036-.436.253-.798.617-1.052.543-.328 1.342-.292 1.814.289z"/><path d="M94.935 19.625c.182.472.109 1.052-.107 1.523-.436.617-1.197 1.052-1.959.908-.508-.11-.98-.399-1.162-.834-.361-.436-.398-1.089-.18-1.561.217-.689.869-1.197 1.596-1.197.724-.072 1.413.472 1.812 1.161zm-59.093.036c.181.436.253 1.016.108 1.487-.29.726-1.051 1.161-1.813 1.197-.581-.072-1.161-.363-1.487-.834-.291-.471-.399-1.052-.218-1.56.218-.653.871-1.124 1.56-1.233.725-.109 1.414.29 1.85.943z"/><path fill="#fff" d="M94.21 19.407c.254.326.363.798.254 1.27a1.837 1.837 0 0 1-.834.907c-.617.109-1.162-.073-1.523-.544-.254-.363-.328-.907-.109-1.307.109-.435.58-.652 1.016-.798.397-.072.833.146 1.196.472zm-58.949.254c.254.29.326.726.29 1.161-.146.435-.544.871-.943 1.016-.436.108-.871-.036-1.198-.254-.363-.327-.689-.689-.544-1.197 0-.362.253-.689.544-.906.509-.473 1.416-.364 1.851.18z"/><path d="M98.997 22.382c.182.472.182 1.125-.072 1.597-.398.58-1.051 1.016-1.74.943-.508-.073-.943-.218-1.197-.581a1.796 1.796 0 0 1-.473-1.378 1.673 1.673 0 0 1 .908-1.415c.398-.254.941-.326 1.451-.182a2.32 2.32 0 0 1 1.123 1.016zm-10.955 0c.146.472.182 1.125-.072 1.597-.254.508-.725.762-1.16.943-.473.036-1.088.072-1.414-.218-.689-.435-1.016-1.161-.871-1.886.107-.544.398-1.016.906-1.27a1.99 1.99 0 0 1 2.611.834zm-56.626-.254c.509.581.509 1.524.218 2.213-.327.581-.979.871-1.596.834-.762-.037-1.451-.617-1.632-1.306-.182-.762.072-1.524.726-1.959.615-.579 1.703-.471 2.284.218zm10.919.435c.399.544.436 1.378.072 1.995-.362.544-.942.798-1.559.834a1.807 1.807 0 0 1-1.415-.652c-.399-.435-.472-1.016-.363-1.56.072-.508.472-1.016.943-1.234.835-.362 1.778-.18 2.322.617z"/><path fill="#fff" d="M98.599 22.637c.072.398 0 .761-.107 1.124-.328.544-.871.762-1.344.726-.436-.073-.834-.399-.979-.726-.291-.399-.219-.871 0-1.27.109-.472.617-.653 1.051-.726.545-.035 1.09.327 1.379.872zm-11.244-.4c.254.29.361.726.326 1.161-.109.363-.363.689-.654.943-.508.217-1.197.217-1.596-.146-.436-.435-.58-.943-.361-1.523.107-.472.578-.834 1.088-.87.47-.072.869.108 1.197.435z"/><path d="M93.013 24.341c2.176 1.415 4.207 3.482 5.297 5.949 1.16 2.576 1.777 5.406 2.285 8.307-.182.254-.58.182-.799.436-1.088.688-1.305 1.886-1.668 2.975-.146 1.016.436 1.922 1.342 2.394l.906.399v.182c-.869.653-1.959.907-2.975.616-.906-.29-1.74-1.052-2.031-1.922-.145-.544-.254-1.161-.035-1.632.543-.689.762-1.56.543-2.431-.254-.762-.979-1.415-1.668-1.596-.871-.29-1.814-.036-2.357.617-.617.507-.762 1.233-.799 1.958-.799.871-2.031 1.161-3.084.979-.979-.181-1.85-.943-2.213-1.813-.182-.399-.289-.835-.219-1.271.908.254 2.215.545 3.084-.217.908-.798.871-1.996 1.197-3.047 0-.943-.471-1.778-1.197-2.141-.543-.145-.07-.725-.217-1.088a2.718 2.718 0 0 0-1.125-1.668v-.073c.943.036 1.924-.435 2.395-1.342.363-.761.217-1.85-.289-2.466-.545-.617-1.27-.871-2.031-.834-.51-.581.398-.472.58-.834.688-.617.834-1.705.58-2.539-.072-.109-.145-.181-.037-.254 1.451.724 3.084 1.304 4.535 2.356z"/><path fill="#fff" d="M31.27 22.709c.182.363.182.944 0 1.342a1.276 1.276 0 0 1-1.233.689c-.435-.037-.871-.363-1.052-.689a1.44 1.44 0 0 1-.037-1.161c.109-.435.544-.798 1.016-.87.545-.074 1.016.217 1.306.689zm10.593-.037c.181.254.363.544.363.943a2.201 2.201 0 0 1-.508 1.052c-.327.218-.762.291-1.125.254-.472-.073-.906-.472-1.016-.871-.145-.363-.145-.834.073-1.125a1.215 1.215 0 0 1 1.088-.689c.363-.035.799.11 1.125.436z"/><path fill="#ce3829" d="M82.673 25.756c.254 1.379.436 2.829.363 4.281l-.979.762c-1.16-.109-2.141.435-2.686 1.342-.471 1.27-1.305 2.975-.289 4.28.289.617.943 1.016 1.633 1.197-.182.544-.762 1.017-1.27 1.198-.871.29-1.816.036-2.395-.508-.617-.508-.908-1.233-.799-1.959.326-.762.398-1.706.072-2.467-.436-.943-1.486-1.777-2.504-1.741-1.123-.037-2.066.471-2.646 1.415-.473.652-.473 1.56-.4 2.358-.326.689-.979 1.415-1.777 1.56-.906.072-1.812-.11-2.32-.871-.254-.291-.473-.653-.436-1.016.906.036 1.887-.253 2.502-1.016.871-1.015.545-2.394.58-3.664-.145-.979-.979-1.813-1.812-2.14l-.508-.108c-.254-.763-.871-1.523-1.596-1.85a3.004 3.004 0 0 0 1.16-2.25c-.037-.653-.291-1.234-.58-1.705 5.625-1.016 11.935-.327 16.687 2.902zm-21.33-2.902c.072.508-.327.943-.29 1.488-.037.943.253 1.813 1.051 2.394-.181.109-.435.217-.616.362-.617.509-.98 1.053-1.197 1.705-1.016.545-2.104 1.162-2.503 2.322 0 1.196-.254 2.721.798 3.591a2.96 2.96 0 0 0 2.357.871c-.072.617-.579 1.125-1.088 1.524-.871.399-1.995.399-2.757-.145-.362-.399-.871-.834-.871-1.379.108-1.051-.181-2.067-1.016-2.756-.762-.617-1.814-.835-2.721-.509-1.017.254-1.814 1.306-1.922 2.286-.182.906.181 1.668.543 2.431-.181.725-.653 1.559-1.451 1.813-.726.218-1.669.182-2.286-.254-.398-.326-.725-.616-.834-1.052.834-.29 1.451-1.161 1.705-1.959.146-1.378-.29-2.648-.943-3.7-.617-.726-1.487-1.088-2.43-1.052l-1.013-1.126c.036-1.378.181-2.72.652-3.954 1.125-.834 2.431-1.379 3.737-1.886h.109c4.099-1.559 8.561-1.704 12.986-1.015z"/><path d="M38.526 23.58c0 .616.254 1.161.69 1.632.145.471 1.306.326.798 1.015-.979-.145-1.85.291-2.322 1.088-.435.689-.363 1.813.108 2.503.363.435.872.762 1.416.906-.436.617-.799 1.306-.653 2.177-.762.362-1.523 1.124-1.523 2.067-.036.907.253 1.742.544 2.576.326.617 1.016 1.197 1.777 1.27.835.108 1.596-.254 2.395-.399.218 1.161-.436 2.249-1.415 2.866-.907.544-2.068.581-3.047.182-.544-.363-1.161-.799-1.378-1.415-.182-.834-.979-1.452-1.705-1.705a2.727 2.727 0 0 0-2.25.472c-.653.508-.943 1.378-.834 2.249 0 .653.399 1.161.87 1.632.037.979-.362 1.85-1.088 2.54-1.016.798-2.467.762-3.519.181v-.109c.87-.508 1.668-1.378 1.741-2.395-.145-1.016-.617-1.922-1.016-2.829-.29-.436-.725-.616-1.197-.726.253-3.265 1.16-6.349 2.503-9.214.907-1.959 2.322-3.882 4.244-5.006 1.523-1.233 3.229-2.032 5.007-2.685.036.365-.182.728-.146 1.127zm26.555-.327c.506.472.688 1.306.434 1.995-.182.508-.725.871-1.197 1.052-.762.182-1.597-.036-2.031-.689a1.691 1.691 0 0 1-.29-1.488c.036-.508.471-.907.907-1.16.616-.326 1.596-.291 2.177.29z"/><path fill="#fff" d="M98.382 31.705c-2.467-1.668-5.225-2.539-7.98-3.156.109-1.052-.291-2.031-.98-2.757-.398-.254-.799-.472-1.197-.58.652-.617.943-1.451.943-2.358 3.845 1.451 7.98 4.715 9.214 8.851zm-60.328-8.452c-.146 1.016.399 1.886 1.052 2.539-.87.182-1.741.834-2.031 1.741l-.182.98c-2.647.581-5.296 1.27-7.509 2.902.653-1.995 1.958-4.026 3.846-5.333a15.092 15.092 0 0 1 4.824-2.829zm26.663.29c.29.327.471.798.399 1.306a1.527 1.527 0 0 1-.762.943c-.435.182-.979.109-1.342-.109-.399-.291-.617-.725-.581-1.197.036-.472.29-.943.762-1.125a1.325 1.325 0 0 1 1.524.182z"/><path d="M102.191 26.046c.291.508.254 1.27.037 1.85-.363.544-1.053.943-1.705.871-.582 0-1.053-.29-1.344-.689-.326-.435-.508-.907-.326-1.451.072-.507.363-1.015.871-1.233.762-.472 1.959-.255 2.467.652zm-73.786.181c.326.436.326 1.052.218 1.632-.182.436-.581.834-1.053 1.052-.471.145-1.124.182-1.56-.036-.689-.327-1.052-1.052-.979-1.778 0-.544.29-1.016.762-1.342.761-.579 2.031-.398 2.612.472z"/><path fill="#fff" d="M101.648 26.082c.289.326.361.871.252 1.343a1.52 1.52 0 0 1-.615.726c-.436.253-.943.181-1.307.036-.58-.327-.834-.943-.652-1.523.035-.363.289-.689.652-.871.508-.364 1.197-.182 1.67.289zm-73.679.399c.29.29.254.798.182 1.233-.109.327-.398.617-.726.798-.544.181-1.233.072-1.632-.362-.363-.436-.436-1.125-.109-1.633.218-.399.652-.581 1.052-.652.472-.036.943.217 1.233.616z"/><path d="M89.239 27.026c.219.435.291.979.146 1.487-.291.653-.908 1.125-1.525 1.233l-.941-.109c-.727-.399-1.307-1.052-1.162-1.886 0-.472.254-.907.654-1.197.434-.472 1.16-.544 1.85-.327.398.073.725.436.978.799z"/><path fill="#fff" d="M88.697 27.026c.145.253.289.543.326.907-.109.436-.254.87-.617 1.124-.398.146-.871.327-1.197.146-.471-.108-.725-.471-.871-.798-.18-.399-.145-.907.146-1.233.182-.29.508-.507.871-.58.506-.074.906.107 1.342.434z"/><path d="M41.391 27.714c.218.508.146 1.197-.108 1.706-.363.58-1.016.87-1.669.87-.616-.072-1.233-.326-1.523-.906-.363-.581-.363-1.416.072-1.923.362-.543.907-.762 1.524-.797.688-.001 1.414.362 1.704 1.05z"/><path fill="#fff" d="M40.848 27.714c.217.363.253.908.108 1.342-.29.399-.653.726-1.125.798-.58.036-1.088-.327-1.378-.798-.145-.326-.217-.762 0-1.088.182-.543.688-.871 1.306-.871.399.073.798.218 1.089.617z"/><path d="M66.277 30.254c.473.762.473 1.995.037 2.83-.508.762-1.307 1.342-2.213 1.452-.907.036-1.778-.182-2.395-.798-.725-.834-1.125-1.959-.689-3.012.291-1.051 1.342-1.85 2.431-1.958 1.16-.11 2.249.398 2.829 1.486z"/><path fill="#ce3829" d="M98.708 32.612c.545 1.814 1.016 3.664 1.307 5.66l-.037.181c-1.379.399-1.74 1.85-2.176 2.974-.291.726-.182 1.669.289 2.358.254.508.871.871 1.416 1.161-.219.182-.617.218-.871.291-.834.108-1.814-.291-2.322-.907-.508-.581-.762-1.306-.543-2.067.578-.798.834-1.886.543-2.83-.289-.762-.979-1.523-1.705-1.777a2.804 2.804 0 0 0-2.684.254 3.048 3.048 0 0 0-1.307 2.502c-.906.726-2.141 1.053-3.121.508-.725-.327-1.34-1.052-1.449-1.778.545.073 1.232.109 1.887-.036 1.777-.399 1.994-2.394 2.357-3.845-.037-1.052-.545-2.032-1.379-2.612.072-.798-.217-1.487-.615-2.031.76-.181 1.521-.907 1.885-1.632 3.012.688 6.058 1.595 8.525 3.626zm-60.472-1.778c.108.036.29.146.181.327-.29.435-.398 1.016-.398 1.56a2.645 2.645 0 0 0-1.451 2.032c-.145 1.088.326 1.995.616 3.011a2.855 2.855 0 0 0 2.721 1.524l1.342-.254c0 .653-.399 1.342-.979 1.777-.762.544-1.851.581-2.685.254-1.415-.399-1.124-2.031-2.249-2.648-.762-.653-1.813-.762-2.721-.472-1.124.363-1.886 1.415-1.958 2.576-.036.907.254 1.705.907 2.358-.109.725-.254 1.451-.907 1.958-.689.508-1.523.689-2.322.436.798-.798 1.56-1.886 1.125-3.084-.581-1.124-.581-2.72-1.996-3.119.037-1.923.617-3.664 1.089-5.405l.471-1.378c2.249-1.959 5.079-2.576 7.872-3.265.254.652.653 1.377 1.342 1.812z"/><path fill="#fff" d="M65.95 30.617c.4.871.219 2.031-.436 2.793-.797.689-1.922.871-2.865.436-.798-.436-1.378-1.161-1.306-2.104-.036-.798.218-1.56.943-2.032.58-.435 1.378-.581 2.177-.399.581.181 1.196.689 1.487 1.306z"/><path d="M104.368 30.689c.18.689 0 1.451-.51 1.995-.434.254-.869.435-1.305.435-.545-.109-1.053-.327-1.379-.761-.436-.544-.508-1.378-.145-1.923.363-.545.906-.979 1.596-.943.691-.036 1.415.472 1.743 1.197zm-77.776.327c.217.581-.037 1.233-.363 1.742-.508.471-1.197.762-1.886.58-.544-.145-.944-.689-1.161-1.125-.291-.726-.037-1.451.435-1.923.435-.471 1.161-.616 1.777-.435.435.145 1.016.617 1.198 1.161z"/><path fill="#fff" d="M103.642 30.399c.289.29.326.762.326 1.233-.145.398-.508.798-.869.943-.473.145-.836.036-1.199-.145-.363-.254-.543-.581-.543-.943-.072-.544.072-1.016.543-1.27.472-.434 1.271-.289 1.742.182zm-77.922.182c.29.29.472.688.436 1.16-.073.436-.399.943-.834 1.089a1.528 1.528 0 0 1-1.27-.146c-.471-.436-.653-1.125-.399-1.669.146-.435.617-.689 1.015-.798.363-.035.726.11 1.052.364z"/><path d="M44.729 32.685c.797.871.834 2.395.291 3.446-.654.834-1.597 1.306-2.576 1.306a2.978 2.978 0 0 1-2.358-1.306c-.472-.726-.653-1.741-.29-2.539.29-1.125 1.378-1.814 2.467-1.923.979-.073 1.813.29 2.466 1.016zm42.19.072c.615.725.941 1.778.652 2.756-.326.871-1.088 1.706-1.959 1.959-.871.218-1.887.109-2.504-.435-.797-.689-1.342-1.56-1.195-2.648.072-1.016.834-1.923 1.74-2.358 1.088-.435 2.43-.181 3.266.726z"/><path fill="#fff" d="M44.584 33.265c.436.581.436 1.56.181 2.286-.399.725-1.161 1.342-1.922 1.415-.762.073-1.524-.182-2.032-.689-.544-.58-.87-1.306-.689-2.104.109-.87.798-1.705 1.669-1.959 1.052-.364 2.213.107 2.793 1.051zm42.044-.145c.58.653.652 1.633.398 2.467-.254.726-.979 1.306-1.668 1.488-.871.181-1.777-.072-2.322-.726-.543-.617-.799-1.415-.543-2.249.217-.943.979-1.741 1.994-1.814.834-.145 1.524.29 2.141.834z"/><path d="M105.056 34.789c.254.218.363.653.617.871-.072.326 0 .798-.109 1.197-.326.617-.979 1.125-1.633 1.161-.578-.073-1.123-.181-1.414-.617a1.616 1.616 0 0 1-.436-1.487c0-.508.291-.944.762-1.234.545-.472 1.596-.399 2.213.109zm-79.88.797c.362.581.29 1.488-.145 2.031-.472.581-1.27.762-1.959.581a1.966 1.966 0 0 1-1.124-1.16c-.183-.472-.109-1.053.144-1.487.291-.472.798-.835 1.379-.871.689-.073 1.415.254 1.705.906z"/><path fill="#fff" d="M104.984 35.405c.219.436.254 1.125-.035 1.597-.328.326-.689.508-1.053.543-.471-.036-.871-.182-1.125-.507-.326-.363-.326-.979-.145-1.379.145-.508.652-.798 1.16-.834.436-.036.834.217 1.198.58zm-80.243.291c.253.327.253.871.145 1.27-.181.398-.581.798-1.016.834-.472.036-.87-.073-1.161-.363a1.302 1.302 0 0 1-.363-1.125c.037-.581.472-1.015 1.052-1.161.472-.144.98.146 1.343.545z"/><path d="M63.883 35.151c.073 1.632.908 3.192 2.394 4.027l-.035.363c-1.778 0-3.665 0-5.406.072-.145-.145-.181-.435.108-.472 1.343-.834 2.395-2.322 2.503-3.917.109-.109.255-.109.436-.073z"/><path fill="#ce3829" d="m65.333 39.105-.072.036c-1.197-.072-2.321-.036-3.41 0 .798-.726 1.451-1.524 1.813-2.503.4.872.8 1.815 1.669 2.467z"/><path d="M55.322 38.344c.508.544 1.197.907 1.922 1.161v.399c-1.85.217-3.773.507-5.514.834-.617-.544.4-.725.58-1.088.509-.616.762-1.378 1.053-2.067.399 0 .798-.219 1.197-.219zm18.791-.871c.4.907.652 1.996 1.598 2.684.07.146-.109.254-.109.399-1.742-.254-3.52-.581-5.225-.689-.398-.689.617-.508.906-.907.582-.436 1.053-1.052 1.453-1.597.433.11.869.22 1.377.11zm-29.892.254c.581 1.487 1.85 3.011 3.519 3.374.073.073.036.254.036.399l-5.84 1.523c-.508-.508.471-.616.581-1.016.907-1.161 1.378-2.576 1.197-4.099.108-.108.29-.181.507-.181zm39.395.217c-.107 1.632.328 3.229 1.598 4.353.107.146.508.327.289.581l-.145.072c-1.85-.543-3.592-1.087-5.404-1.523-.184-.616.615-.472.943-.725 1.051-.617 2.066-1.705 2.393-2.866z"/><path fill="#ce3829" d="m55.176 38.852.979.725-3.628.544c.472-.652.907-1.342 1.161-2.104.218-.073.472-.145.689-.108zm18.61-.835c.217.653.617 1.306 1.053 1.922-1.09-.145-2.322-.326-3.52-.435.58-.363 1.16-1.016 1.67-1.632z"/><path d="M105.927 38.09v.036h-.072c-.073-.072.037-.109.072-.036z"/><path fill="#ce3829" d="M46.797 41.246c-1.271.326-2.648.689-3.881 1.051a6.043 6.043 0 0 0 1.306-3.446c.616.98 1.487 1.96 2.575 2.395zm37.655.942c-1.234-.29-2.395-.762-3.555-.979.834-.471 1.775-1.124 2.285-2.067.073 1.161.544 2.14 1.27 3.046z"/><path d="M105.892 40.738c.615.762.762 1.814.434 2.792-.398.908-1.305 1.633-2.213 1.742-.979.108-1.85-.218-2.465-.871a2.766 2.766 0 0 1-.617-2.611c.254-1.088 1.232-1.923 2.322-2.068.906-.109 1.922.145 2.539 1.016z"/><path fill="#fff" d="M105.818 41.427c.109.327.146.762.254 1.198-.145.834-.689 1.741-1.486 2.068-.834.29-1.705.145-2.322-.327-.615-.544-.834-1.161-.834-1.886 0-.979.617-1.887 1.596-2.177 1.051-.436 2.249.108 2.792 1.124z"/><path d="M26.482 41.572c.508.653.617 1.705.327 2.54-.399.834-1.306 1.632-2.25 1.777-.834 0-1.596-.181-2.249-.726-.725-.762-1.16-1.777-.834-2.866.327-1.051 1.378-1.958 2.503-1.995.98-.109 1.923.4 2.503 1.27z"/><path fill="#fff" d="M25.974 41.609c.508.653.653 1.632.326 2.43a2.773 2.773 0 0 1-1.523 1.342c-.617.146-1.233-.036-1.777-.326-.726-.472-1.161-1.27-1.125-2.104 0-.834.545-1.559 1.234-1.958.942-.473 2.14-.291 2.865.616z"/><path d="m91.888 48.501 2.975 1.27c.254.217.473.581.326.979-.145.291-.508.363-.689.581l.436 1.922c-.725.399-1.451.834-2.066 1.342.072.291.107.653-.037.979-.289.254-.652.436-.979.29-.326-.144-.508-.326-.762-.398-7.4-3.374-15.418-5.84-23.871-5.84-5.405-.145-10.447 0-15.598 1.052-5.804 1.088-11.247 3.265-16.47 5.804a1.031 1.031 0 0 1-1.052-.327c-.254-.363-.146-.87-.037-1.197l-1.813-1.27c.072-.653.218-1.342.326-1.995-.326-.146-.762-.218-.87-.617-.037-.254-.037-.616.181-.834.653-.436 1.451-.653 2.213-.943 9.396-3.882 19.371-7.002 30.037-7.002 9.758-.072 19.008 2.649 27.75 6.204zm1.342-5.659c.074 1.161.436 2.286 1.307 3.229-.217.689-.689-.072-1.016 0-1.596-.762-3.229-1.414-4.789-1.995-.18-.108-.072-.29 0-.399 1.088-.146 2.359-.435 3.301-1.269.363.107.726.325 1.197.434zm-54.74.906c.036.073.108.219.072.4-1.85.689-3.7 1.233-5.442 2.104l-.471.109c.072-.327.435-.544.616-.834.472-.689.689-1.524.762-2.358.399-.218.798-.362 1.161-.653.98.652 2.069 1.197 3.302 1.232z"/><path fill="#efc460" d="M88.841 47.775c1.85.653 3.736 1.488 5.623 2.286.145.072.289.327.217.543l-.398.254-2.975.943c.289 1.052.762 2.068 1.197 3.156 0 .254-.219.435-.398.508-7.148-3.301-14.766-5.949-22.783-6.239-7.581-.436-15.38 0-22.417 2.141-4.136 1.197-8.09 2.829-11.936 4.679-.29.073-.435-.109-.544-.254.073-1.088.689-1.995.979-2.975l.327-.798a28.422 28.422 0 0 0-3.337-.87c-.218-.109-.327-.399-.181-.58l.58-.291c10.629-4.39 22.092-8.126 34.172-7.437 7.472.291 14.872 2.323 21.874 4.934z"/><path fill="#ce3829" d="M92.794 43.168c.146.799.291 1.633.762 2.358-1.232-.508-2.502-1.052-3.664-1.524a7.214 7.214 0 0 0 2.215-1.052zm-55.429.871-3.41 1.342c.146-.544.363-1.269.508-1.886l.762-.399c.653.399 1.378.798 2.14.943z"/><path d="M69.288 46.106c.072.146-.182.146-.254.218l-5.333 1.669-5.659-1.741v-.109c1.922-.726 3.809-1.523 5.768-2.25 1.814.654 3.629 1.488 5.478 2.213zm31.633-2.067-.109-.072.109.035z"/><path fill="#ce3829" d="m68.019 46.106-4.354 1.415-4.244-1.342v-.073l4.39-1.705c1.415.473 2.794 1.125 4.208 1.705z"/><path d="M74.185 45.599a2.79 2.79 0 0 1 .146 1.56c-.254.726-1.053 1.233-1.742 1.378-.799.037-1.451-.29-1.85-.834-.326-.399-.436-.834-.398-1.342.035-.762.652-1.487 1.377-1.705.871-.327 1.924.073 2.467.943zm-17.448.217c.217.653.181 1.597-.363 2.177-.472.399-1.052.617-1.632.544-.689-.109-1.378-.617-1.524-1.233a1.949 1.949 0 0 1 .436-2.104c.472-.471 1.233-.689 1.923-.435.433.181.942.544 1.16 1.051z"/><path fill="#fff" d="M73.57 45.599c.217.291.361.726.326 1.161-.146.544-.545 1.088-1.053 1.27a1.78 1.78 0 0 1-1.596-.399c-.436-.508-.58-1.306-.182-1.887.254-.435.689-.689 1.197-.725.474 0 .979.145 1.308.58zm-17.632-.109c.327.363.508.834.472 1.379-.145.435-.399.943-.834 1.125-.436.181-.871.109-1.233-.036-.581-.363-.907-.979-.762-1.669.108-.544.544-1.052 1.124-1.16.435-.11.871.035 1.233.361z"/><path d="M81.55 46.216c1.596 1.051 3.082 2.357 4.715 3.445v.073c-1.922.108-4.027.146-5.984.254-1.67-1.088-3.338-1.995-4.898-3.12l.072-.073c1.961-.218 3.811-.363 5.805-.617zm-29.747.725c-1.632 1.161-3.338 2.286-5.042 3.229l-5.659-.29-.036-.073 4.752-3.59 5.949.688z"/><path fill="#1e7e62" d="M84.995 49.335c-1.596.037-3.082.181-4.68.181-1.197-.907-2.467-1.487-3.627-2.358 1.523-.145 2.975-.435 4.57-.508 1.308.726 2.433 1.742 3.737 2.685zM50.606 47.23c-1.269.872-2.612 1.669-3.918 2.468l-4.353-.182v-.073l3.628-2.793c1.56.146 3.083.364 4.643.58z"/><path d="M91.017 50.133c.328.617.182 1.597-.217 2.213-.545.544-1.342.834-2.068.653-.689-.181-1.27-.798-1.451-1.378-.217-.762 0-1.56.617-1.995.473-.508 1.197-.653 1.887-.508.435.181.978.471 1.232 1.015zm-51.584-.253c.363.399.544.942.508 1.523-.109.508-.363 1.017-.762 1.342-.617.399-1.379.508-2.031.254-.654-.362-1.088-1.016-1.125-1.705-.073-.834.399-1.451 1.052-1.85.725-.399 1.741-.217 2.358.436z"/><path fill="#fff" d="M90.691 50.532c.109.436.037.979-.18 1.415-.328.29-.654.544-1.09.653-.545.036-.979-.181-1.305-.472-.363-.399-.473-.871-.363-1.271 0-.507.326-.943.762-1.124.361-.218.871-.326 1.305-.073.328.147.691.438.871.872zm-51.585-.326c.29.326.436.798.327 1.233a1.613 1.613 0 0 1-.798 1.125c-.436.145-.98.181-1.343 0-.58-.363-.87-1.016-.761-1.596.036-.508.362-.87.761-1.125.581-.29 1.343-.145 1.814.363z"/><path d="M93.195 56.881c7.654 3.882 14.691 9.613 20.424 16.579 3.59 4.789 7 9.794 9.322 15.272 3.338 8.199 5.26 17.123 5.225 26.773-.363 10.338-2.723 19.986-7.146 28.803-2.213 4.207-5.08 8.197-8.018 12.152-5.188 5.949-11.281 11.064-17.885 14.836-11.5 6.385-24.885 9.143-38.417 7.727-8.524-1.123-16.578-3.627-23.906-7.727-2.54-1.414-4.897-3.191-7.255-4.752-4.897-3.771-9.178-8.307-12.951-13.205a43.886 43.886 0 0 0-2.103-3.156c-3.483-5.26-5.913-10.918-7.764-16.723C0 123.847-.798 112.638 1.27 102.626c.943-6.24 3.156-11.863 5.804-17.304 1.378-2.612 2.866-5.188 4.571-7.545 1.233-2.177 2.938-3.991 4.535-5.913 4.607-5.405 10.157-9.794 16.035-13.313 11.462-6.602 24.558-9.686 38.453-8.307 8.017.76 15.489 3.082 22.527 6.637z"/><path fill="#efc460" d="M97.947 60.146c6.855 4.353 12.986 10.048 17.811 16.941 7.039 9.722 10.848 20.859 11.754 33.228.689 12.299-1.922 24.016-7.182 34.318-2.902 5.006-6.168 10.084-10.375 14.473-13.857 14.475-33.121 21.514-52.891 19.518-11.789-1.379-22.673-5.805-32.068-13.059-4.39-3.482-8.344-7.727-11.645-11.973-1.161-1.523-1.959-3.154-3.083-4.57-2.43-3.809-4.171-7.836-5.804-11.861-3.192-8.562-4.462-18.248-3.628-27.934.689-8.742 3.084-16.723 6.893-24.087.036-.036.182 0 .182-.072l-.072-.109c1.016-1.922 2.031-3.772 3.228-5.55.726-.943 1.161-1.995 1.922-2.902 3.338-4.281 6.929-8.453 11.21-11.79 2.104-1.85 4.39-3.265 6.638-4.752 1.089-.979 2.467-1.343 3.628-2.14 14.365-7.836 32.722-9.722 48.646-4.571 5.187 1.595 10.156 3.99 14.836 6.892z"/><path fill="#ce3829" d="M94.392 53.035c-.582.363-1.162.726-1.67 1.052-.326-.653-.652-1.306-.797-1.996.652-.217 1.305-.398 2.031-.616.217.4.289 1.016.436 1.56zm-59.348-.762c-.218.726-.581 1.451-.834 2.213l-1.378-.943c0-.581.109-1.233.362-1.705z"/><path d="M99.868 71.064c6.531 5.587 12.299 12.987 15.525 20.823 2.977 7.037 4.645 14.691 4.682 23-.074 9.83-2.83 18.645-6.857 26.916-4.824 8.67-12.297 16.543-20.857 21.656-4.645 2.686-9.541 4.68-14.73 6.096-12.15 3.156-26.299 1.705-37.363-3.592-3.011-1.451-5.841-3.191-8.634-5.043-2.612-2.176-5.369-4.172-7.654-6.709-3.592-3.701-6.385-7.729-8.707-11.863-2.213-3.629-3.482-7.582-4.788-11.463-2.358-7.836-2.976-17.377-1.452-25.721.726-4.607 2.213-8.851 3.773-13.023 2.648-5.804 5.949-11.318 10.628-16.143 2.612-3.12 5.768-5.478 8.924-7.872 1.052-.58 1.959-1.414 3.047-1.958 11.282-7.002 25.792-9.686 39.359-7.074 9.216 1.777 17.597 5.84 25.104 11.97z"/><path fill="#fff" d="M93.304 66.893c.289.218.035 0 .326.218 9.723 6.095 17.773 15.78 21.873 26.3 2.432 6.275 3.955 13.096 4.064 20.424.107 8.852-1.924 16.941-5.225 24.486-2.25-2.357-4.57-4.605-6.748-6.748.219-1.123.654-2.176 1.016-3.191 2.576-8.09 2.758-18.029.436-26.264-1.27-4.68-3.264-9.033-5.803-13.132-4.246-6.493-10.193-12.153-16.832-15.635-1.633 1.56-3.121 3.337-4.717 4.97-2.285 2.358-4.68 4.68-6.82 7.074-4.643-1.777-9.939-2.322-14.873-1.668l-.617-.544-2.648-2.612-7.981-8.017-7.509-7.473-.943-.979.218-.145c11.572-5.659 26.083-7.001 38.851-3.301 4.862 1.485 9.614 3.371 13.932 6.237z"/><path fill="#2b3e8a" d="m47.958 72.406 3.337 3.374 7.255 7.256.762.761c-2.431.29-4.644 1.052-6.82 1.886l-2.576-2.54c-3.156-3.011-6.24-6.167-9.359-9.105-4.354 2.503-8.343 5.623-11.718 9.649-3.555 3.737-5.839 8.126-7.908 12.552l-.108-.037-6.349-6.42c1.741-3.483 3.773-6.857 6.239-9.977 1.777-2.176 3.628-4.353 5.623-6.203 2.576-2.176 5.042-4.498 7.909-6.167 1.741-1.161 3.627-2.176 5.513-3.119l.073.036z"/><path fill="#efc460" d="M100.739 86.265c6.24 8.453 9.576 18.283 9.469 29.457-.328 7.943-2.467 15.344-6.168 22.057-.072-.146-.145-.037-.182 0l.037.252c-3.699 6.604-9.576 12.371-15.854 16.543l-.508.254-.037-.145.037-9.105c5.877-4.607 10.412-10.992 12.807-17.74 1.922-5.223 2.539-11.209 2.141-17.014-.689-7.4-3.375-13.967-7.654-19.697-2.068-2.721-4.572-5.26-7.146-7.255h-.109a97.548 97.548 0 0 0-5.406 5.514c-2.139-1.56-4.535-2.83-6.783-3.809a297.53 297.53 0 0 1 8.09-8.453l3.084-3.156c5.403 2.901 10.229 7.254 14.182 12.297zm-41.971 6.349a185.563 185.563 0 0 1 4.824 4.68c.037.072-.036.252.145.361 1.561-1.523 3.122-3.373 4.752-4.896.508-.145.98.145 1.523.254 2.033.617 4.027 1.342 5.84 2.648l-.107.217-2.213 2.25-9.323 9.467-.435.473c-1.596-1.234-2.757-2.793-4.172-4.062-4.97-4.861-9.722-9.904-14.691-14.692l-5.115-5.152-.291.146c-.036-.073-.072-.146-.109-.073-2.031 1.597-4.026 3.555-5.586 5.66-3.192 3.518-5.115 7.727-6.711 12.043-3.083 8.453-2.829 19.408.871 27.605 1.088 2.648 2.503 5.225 4.099 7.764 1.234 1.379 2.358 2.975 3.701 4.389 1.342 1.344 2.721 2.648 4.281 3.883l-.037 9.213c-2.975-1.777-5.768-4.025-8.344-6.311-2.431-2.686-4.824-5.406-6.675-8.236-2.757-4.752-5.115-9.576-6.203-14.908-2.539-11.029-.834-23.326 4.426-32.613 2.067-4.425 5.478-8.234 8.851-11.862 1.923-1.741 3.991-3.41 6.168-4.861l2.285-1.378c6.13 5.946 12.152 11.932 18.246 17.991z"/><path fill="#efc460" d="M80.062 88.514a31.82 31.82 0 0 1 5.152 4.1v.18c-1.814 1.777-3.664 3.52-5.406 5.334-.471-.4-.979-.834-1.377-1.197-2.939-2.395-6.168-4.027-9.723-4.752-3.156-.617-6.566-.689-9.65.035-2.249-2.068-4.063-4.099-6.131-6.13 8.598-3.628 19.373-2.649 27.135 2.43z"/><path fill="#fff" d="M89.747 86.192c6.457 6.021 10.484 13.678 11.936 22.164.727 4.934.508 10.449-.545 15.201l-.398 1.125c-3.736-3.883-7.654-7.547-11.209-11.283-2.141-2.176-4.426-4.279-6.385-6.385l-7.328-7.363-1.486-1.596c.58-.799 1.232-1.416 1.922-2.068a17.248 17.248 0 0 1 3.447 2.756h.18a470.434 470.434 0 0 1 6.023-5.984l-.037-.145c-1.053-1.125-2.285-2.031-3.264-3.012 1.559-1.778 3.301-3.519 5.041-5.115.689.435 1.379 1.089 2.103 1.705z"/><path fill="#2b3e8a" d="m44.982 90.001-.071.182a30.437 30.437 0 0 0-11.354 18.719c-.98-.762-1.959-1.777-2.721-2.648-.109-.109-.109-.363-.29-.217l-3.156-3.229c1.088-3.555 2.684-6.893 4.679-10.014 1.162-1.451 2.25-3.082 3.556-4.353 1.197-1.378 2.54-2.684 3.954-3.736h.145z"/><path d="M15.345 86.772v.036l-.037-.109c.001.001.037.001.037.073z"/><path fill="#fff" d="M20.678 96.749c-4.425 10.338-4.716 24.414-.471 35.078 1.995 4.68 4.39 9.252 7.944 13.387 1.197 1.379 2.647 2.902 3.99 4.316 2.539 2.178 5.333 4.391 8.307 6.059l.073-.217.036-9.904-.145-.219c-2.104-1.631-4.063-3.627-5.841-5.586-1.85-2.285-3.482-4.57-4.679-7.037-4.099-7.836-5.623-17.631-3.446-26.736l.725-2.539.327.219c2.068 1.885 3.809 4.062 5.913 5.949-.544 3.01-.58 6.602-.072 9.83.472 3.193 1.342 6.24 2.793 9.105 2.757 5.551 7.618 10.883 13.313 13.748 1.922 1.09 4.026 1.887 6.239 2.576V158.6c2.939 0 5.514-.037 8.308 0l.036-.219.036-12.479c1.777-.145 3.41-.254 5.187-.508l4.717 4.715c3.918 4.102 8.053 8.018 12.043 12.227.908.834 1.742 1.596 2.686 2.611-12.334 6.275-27.68 7.545-40.957 3.41-5.224-1.705-10.121-3.955-14.655-7.037-1.814-1.125-3.446-2.648-5.079-3.918-3.846-3.375-7.364-7.328-10.013-11.428-2.43-3.809-4.57-7.691-5.949-11.826-.87-2.684-1.741-5.332-2.249-8.09-1.814-8.561-1.342-18.393.98-26.518 1.051-3.156 1.813-6.42 3.445-9.25 2.25 2.033 4.245 4.209 6.458 6.459z"/><path fill="#efc460" d="M50.787 95.84v.074c-7.691 5.332-11.246 14.654-9.105 23.906 1.197 5.477 4.752 10.592 9.794 13.93 5.841 3.844 13.857 4.643 20.57 2.104 2.684-.979 5.078-2.793 7.363-4.607 1.74 1.814 3.627 3.52 5.441 5.588-1.924 2.176-4.535 3.662-7.002 5.15-8.125 4.426-19.153 4.461-27.388.254-3.482-1.777-6.674-4.172-9.287-7.146-4.462-5.043-7.074-10.955-7.545-17.666-.472-6.457.762-12.66 3.773-17.848 1.958-3.41 4.752-6.785 7.908-9.143 1.815 1.777 3.7 3.447 5.478 5.404z"/><path fill="#2b3e8a" d="M67.947 92.54c-.398.473-.943.945-1.342 1.488-.908.871-1.814 1.85-2.722 2.793-1.523-1.27-2.866-2.828-4.317-4.207 2.684-.617 5.55-.617 8.381-.074zm-6.567 13.966c.762.727 1.451 1.488 2.322 2.213l.181-.109c3.337-3.518 6.566-6.855 10.048-10.193 1.016.943 2.033 2.104 3.156 3.193 1.996 1.85 3.883 4.025 5.986 5.949 2.031 2.141 4.1 4.207 6.348 6.385l7.109 7.182 4.064 4.1c-1.162 4.027-2.867 7.836-5.26 11.428-2.395 3.191-5.043 6.238-8.271 8.668l-.072.291v9.977l.107.072c7.945-4.752 14.873-12.225 18.828-20.459l1.414-3.193c2.215 2.178 4.535 4.389 6.785 6.82-1.633 3.52-3.738 6.82-6.131 10.084-5.115 6.566-11.646 12.045-18.828 15.816-2.539-2.611-5.041-4.932-7.473-7.473l-7.002-7.074a205.857 205.857 0 0 0-4.861-4.824l.109-.109c5.805-1.195 11.064-3.988 15.49-8.232.145-.182-.035-.363-.109-.4-1.959-2.141-3.99-4.062-5.875-6.059-3.049 2.721-6.531 4.754-10.34 5.732-1.668.363-3.301.508-4.97.617l-.073-.146.037-5.912 5.73-.037.109-.254-.035-7.836-.182-.072h-5.914c-.108-1.27-.073-2.611-.036-3.809l8.053-.072.072-.182-.035-7.764H57.135l-1.342.037-.072.58-.037 19.734c-3.41-3.482-6.965-7.146-10.52-10.557l-3.374-3.41c-.69-4.643.326-9.395 2.43-13.24 1.487-3.047 4.135-5.768 6.892-7.727 3.521 3.301 6.749 6.927 10.268 10.265z"/><path d="m1.96 98.309-.036-.072.036.035zm126.315 12.115c-.037 0-.109.072-.074.072v-.145c-.001-.036.037.001.074.073z"/><path fill="#efc460" d="M71.392 111.405c0 2.357-.072 4.498-.035 6.893-2.613.035-5.26-.037-8.018.035-.181 1.523-.108 3.084-.073 4.68l.109.109h6.058v7.219l-.145.037h-5.624l-.072.107-.036 6.385c-2.54-.072-5.042-.508-7.328-1.307v-24.232c5.006-.145 9.976-.072 15.091-.072z"/><path d="M.037 117.862 0 117.788c.037-.073.037 0 .037.074z"/><path fill="#fff" d="m52.275 128.417 3.41 3.41v3.557c-5.659-2.25-10.919-7.4-12.806-13.096-.472-1.451-.943-2.902-1.015-4.318 3.373 3.556 7.073 6.857 10.411 10.447z"/><path d="m100.448 124.172-.035-.035h.035zm25.032 10.522v.072z"/><path fill="#efc460" d="m63.52 145.866.036.943-.036 11.391-7.328-.035.036-13.242c2.286.507 4.789.908 7.292.943z"/><path d="m108.648 160.086-.037.035v-.107c0-.072 0 0 .037.072zm-37.51 10.92h-.107l.035-.109c.037-.072.037 0 .072.109zm9.105 5.549v.074z"/></g></svg>